<svg width="20" height="20" viewBox="0 0 20 20" fill="none" xmlns="http://www.w3.org/2000/svg">
<g clip-path="url(#clip0_2001_356)">
<path d="M10 7.00092C9.60615 7.00092 9.21617 7.07849 8.8523 7.22921C8.48843 7.37993 8.15782 7.60084 7.87933 7.87933C7.60084 8.15782 7.37993 8.48843 7.22921 8.8523C7.07849 9.21617 7.00092 9.60615 7.00092 10C7.00092 10.3938 7.07849 10.7838 7.22921 11.1477C7.37993 11.5116 7.60084 11.8422 7.87933 12.1207C8.15782 12.3992 8.48843 12.6201 8.8523 12.7708C9.21617 12.9215 9.60615 12.9991 10 12.9991C10.7954 12.9991 11.5582 12.6831 12.1207 12.1207C12.6831 11.5582 12.9991 10.7954 12.9991 10C12.9991 9.20459 12.6831 8.44176 12.1207 7.87933C11.5582 7.31689 10.7954 7.00092 10 7.00092ZM10 5.00065C10.6634 4.98992 11.3223 5.11132 11.9384 5.35777C12.5544 5.60423 13.1152 5.97081 13.5882 6.43617C14.0611 6.90153 14.4367 7.45635 14.6931 8.06831C14.9495 8.68028 15.0816 9.33715 15.0816 10.0007C15.0816 10.6642 14.9495 11.321 14.6931 11.933C14.4367 12.545 14.0611 13.0998 13.5882 13.5651C13.1152 14.0305 12.5544 14.3971 11.9384 14.6435C11.3223 14.89 10.6634 15.0114 10 15.0007C8.67374 15.0007 7.40181 14.4738 6.464 13.536C5.5262 12.5982 4.99935 11.3263 4.99935 10C4.99935 8.67374 5.5262 7.40181 6.464 6.464C7.40181 5.5262 8.67374 5.00065 10 5.00065ZM16.4995 4.75062C16.505 4.91811 16.4767 5.08498 16.4163 5.24132C16.356 5.39765 16.2648 5.54025 16.1482 5.66065C16.0317 5.78105 15.8921 5.87678 15.7378 5.94216C15.5835 6.00754 15.4176 6.04123 15.25 6.04123C15.0825 6.04123 14.9166 6.00754 14.7623 5.94216C14.608 5.87678 14.4684 5.78105 14.3518 5.66065C14.2353 5.54025 14.1441 5.39765 14.0838 5.24132C14.0234 5.08498 13.9951 4.91811 14.0005 4.75062C14.0005 4.41906 14.1322 4.10107 14.3667 3.86662C14.6011 3.63217 14.9191 3.50046 15.2507 3.50046C15.5823 3.50046 15.9002 3.63217 16.1347 3.86662C16.3691 4.10107 16.4995 4.41906 16.4995 4.75062ZM10 2.00157C7.52585 2.00157 7.12266 2.00681 5.97199 2.05786C5.18654 2.09582 4.6616 2.20055 4.17332 2.39036C3.74002 2.55793 3.42715 2.75952 3.09334 3.09334C2.77916 3.39573 2.5396 3.76489 2.38906 4.17332C2.19924 4.66291 2.09452 5.18785 2.05786 5.97199C2.0055 7.07553 2.00026 7.46171 2.00026 10C2.00026 12.4741 2.00681 12.8786 2.05786 14.0293C2.09582 14.8121 2.20055 15.3384 2.38906 15.8267C2.55924 16.2613 2.75952 16.5742 3.09203 16.9067C3.42846 17.2418 3.74133 17.4434 4.17201 17.6096C4.66553 17.8008 5.19178 17.9068 5.97199 17.9421C7.07553 17.9945 7.46171 17.9997 10 17.9997C12.4741 17.9997 12.8786 17.9932 14.0293 17.9421C14.8108 17.9055 15.3384 17.8008 15.8267 17.6109C16.2587 17.4421 16.5742 17.2418 16.9067 16.9093C17.2431 16.5715 17.4434 16.2587 17.6096 15.8293C17.8008 15.3358 17.9068 14.8082 17.9421 14.0293C17.9945 12.9258 17.9997 12.5396 17.9997 10C17.9997 7.52585 17.9932 7.12266 17.9421 5.97199C17.9055 5.18916 17.8008 4.6616 17.6096 4.17332C17.459 3.76532 17.2187 3.39628 16.9067 3.09334C16.6044 2.78008 16.2352 2.5393 15.8267 2.38906C15.3371 2.19924 14.8108 2.09452 14.0293 2.05786C12.9258 2.0055 12.5396 2.00157 10 2.00157ZM10 0C12.7176 0 13.0567 0.0104726 14.1223 0.0602173C15.1879 0.109962 15.9118 0.277523 16.5506 0.524938C17.2104 0.778898 17.7667 1.12318 18.3218 1.67823C18.831 2.1783 19.225 2.78309 19.4751 3.45071C19.7225 4.08692 19.89 4.81215 19.9398 5.87773C19.9869 6.94463 20 7.28368 20 10.0013C20 12.7176 19.9895 13.0567 19.9398 14.1223C19.89 15.1879 19.7225 15.9118 19.4751 16.5506C19.225 17.2182 18.831 17.823 18.3231 18.3218C17.8229 18.8302 17.2181 19.2237 16.5506 19.4751C15.9131 19.7225 15.1865 19.89 14.1223 19.9398C13.0567 19.9869 12.7176 20 10 20C7.28368 20 6.94463 19.9895 5.87773 19.9398C4.81346 19.89 4.08823 19.7225 3.45071 19.4751C2.78297 19.2249 2.17801 18.8317 1.67823 18.3231C1.16994 17.823 0.776812 17.2181 0.526247 16.5506C0.277523 15.9131 0.109962 15.1865 0.0602173 14.1223C0.0130907 13.0567 0 12.7176 0 10C0 7.28368 0.0104726 6.94463 0.0602173 5.87773C0.109962 4.81215 0.277523 4.08823 0.524938 3.45071C0.77628 2.78309 1.169 2.1783 1.67823 1.67823C2.17812 1.16974 2.78305 0.776585 3.45071 0.526247C4.08823 0.277523 4.81215 0.109962 5.87773 0.0602173C6.94463 0.0130907 7.28368 0 10.0013 0H10Z" fill="white"/>
</g>
<defs>
<clipPath id="clip0_2001_356">
<rect width="20" height="20" fill="white"/>
</clipPath>
</defs>
</svg>
